<svg xmlns="http://www.w3.org/2000/svg" viewBox="0 0 276.64 276.65"><defs><style>.cls-1{fill:#fff;}</style></defs><title>about_white</title><g id="Layer_2" data-name="Layer 2"><g id="Hand-drawn_Icon_Set" data-name="Hand-drawn Icon Set"><path class="cls-1" d="M138.13,276.65A138.35,138.35,0,0,1,10.48,85.42a12,12,0,0,1,22.17,9.2A114.35,114.35,0,1,0,87,36.13,12,12,0,1,1,76.28,14.67a138.45,138.45,0,0,1,140.58,9.77c62.81,43.3,78.68,129.63,35.38,192.43A138.31,138.31,0,0,1,138.13,276.65Z"/><path class="cls-1" d="M153.33,197.94a14.5,14.5,0,1,1-29,0V134a14.5,14.5,0,1,1,29,0Z"/><circle class="cls-1" cx="138.83" cy="83.75" r="14.62"/></g></g></svg>