<svg xmlns="http://www.w3.org/2000/svg" viewBox="0 0 317.39 235.75"><defs><style>.cls-1{fill:#fff;}</style></defs><title>funfacts_white</title><g id="Layer_2" data-name="Layer 2"><g id="Hand-drawn_Icon_Set" data-name="Hand-drawn Icon Set"><path class="cls-1" d="M313.56,9.91c-5.88-8.42-16.66-11.52-32-9.12A132.79,132.79,0,0,0,258.05,7c-5.36,1.9-11.14,4.09-17.19,6.73h0a3.21,3.21,0,0,0-.77,5.42,122.4,122.4,0,0,1,14.82,14.43,3.22,3.22,0,0,0,3.65.9c1.08-.43,2.13-.85,3.17-1.23a131,131,0,0,1,22.92-6.75A3.22,3.22,0,0,1,288,31.27c-4,7-12.19,18.09-27.79,33.76-.64.63-1.29,1.27-1.93,1.92a3.23,3.23,0,0,1-5.11-.77A100,100,0,0,0,247,56.3,107.68,107.68,0,1,0,77.53,188.65a3.23,3.23,0,0,1-1.06,5.06L74,194.86c-20.1,9.18-33.35,13-41.3,14.4a3.21,3.21,0,0,1-3.33-4.76,106.26,106.26,0,0,1,9.2-13.17c2.1-2.63,4.51-5.51,7.31-8.63a3.24,3.24,0,0,0,.41-3.71,128.86,128.86,0,0,1-8.41-18.91,3.22,3.22,0,0,0-5.36-1.15v0a229.3,229.3,0,0,0-16.18,18.8,122.79,122.79,0,0,0-10,14.89c-7.5,13.6-8.38,24.78-2.51,33.2s16.66,11.53,32,9.12c10.84-1.65,24.51-6,40.67-12.94,32-13.7,71.17-36.26,110.38-63.6s74-56.33,97.85-81.57c12.07-12.79,20.9-24.1,26.21-33.69,7.58-13.64,8.45-24.77,2.59-33.25Zm-232,104.61a10.25,10.25,0,0,1-8.29-11.89,86.81,86.81,0,0,1,36-56.29A10.26,10.26,0,0,1,121,63.18a66.42,66.42,0,0,0-27.57,43.05,10.2,10.2,0,0,1-11.89,8.29Z"/><path class="cls-1" d="M198.57,175.07a800.93,800.93,0,0,1-72.73,45.33,107.63,107.63,0,0,0,140.42-97.89,804.91,804.91,0,0,1-67.69,52.56Z"/></g></g></svg>