<svg xmlns="http://www.w3.org/2000/svg" viewBox="0 0 309.54 322.54"><defs><style>.cls-1{fill:#fff;}</style></defs><title>light_white</title><g id="Layer_2" data-name="Layer 2"><g id="Hand-drawn_Icon_Set" data-name="Hand-drawn Icon Set"><path class="cls-1" d="M191.53,281.86v9.43a15,15,0,0,1-12.67,14.8l-2.32,8.56a10.66,10.66,0,0,1-10.29,7.89h-23a10.67,10.67,0,0,1-10.29-7.89l-2.25-8.56a15,15,0,0,1-12.75-14.87v-9.43a9.07,9.07,0,0,1,9.1-9.09h55.41a9.16,9.16,0,0,1,9.09,9.16Zm42.68-127A79,79,0,0,1,211.91,210a72.83,72.83,0,0,0-19.51,39.55,13.14,13.14,0,0,1-13,11.08H130.08a13,13,0,0,1-12.94-11,73.72,73.72,0,0,0-19.65-39.69,79.45,79.45,0,1,1,136.72-55.08Zm-70.48-48.12a9,9,0,0,0-9-9A57.4,57.4,0,0,0,97.43,155.1a9,9,0,1,0,17.92,0,39.46,39.46,0,0,1,39.42-39.42,8.93,8.93,0,0,0,9-9Zm-9-57.41a9,9,0,0,0,9-9V9a9,9,0,1,0-17.92,0V40.35a9,9,0,0,0,9,9ZM49.31,154.77a9,9,0,0,0-9-9H9a9,9,0,1,0,0,17.92H40.35a8.93,8.93,0,0,0,9-9Zm251.27-9H269.19a9,9,0,1,0,0,17.92h31.39a9,9,0,1,0,0-17.92Zm-233,83.55L45.33,251.6a8.94,8.94,0,0,0,12.61,12.67L80.17,242a8.94,8.94,0,1,0-12.61-12.68ZM235.67,82.83a9,9,0,0,0,6.3-2.59L264.21,58a9,9,0,1,0-12.68-12.68L229.3,67.56a8.93,8.93,0,0,0,0,12.68,9.12,9.12,0,0,0,6.37,2.59ZM67.56,80.17A8.94,8.94,0,1,0,80.17,67.49L57.94,45.26A9,9,0,1,0,45.26,57.94ZM242,229.36A9,9,0,1,0,229.3,242l22.23,22.23a8.94,8.94,0,1,0,12.61-12.67Z"/></g></g></svg>