<svg xmlns="http://www.w3.org/2000/svg" viewBox="0 0 273.74 300.1"><defs><style>.cls-1{fill:#fff;}</style></defs><title>search_white</title><g id="Layer_2" data-name="Layer 2"><g id="Hand-drawn_Icon_Set" data-name="Hand-drawn Icon Set"><path class="cls-1" d="M51.52,184.3a2.91,2.91,0,0,1-1.28,4l-23.16,9.21a9.72,9.72,0,0,1-13.22-3.76L1.23,171.13A9.72,9.72,0,0,1,5,157.91L25.41,143.8a2.9,2.9,0,0,1,4.1,1Z"/><path class="cls-1" d="M219.31,86.45A19.71,19.71,0,0,1,239,106.14a5,5,0,1,0,10,0,19.72,19.72,0,0,1,19.69-19.69,5,5,0,1,0,0-10A19.72,19.72,0,0,1,249,56.73a5,5,0,1,0-10,0,19.72,19.72,0,0,1-19.69,19.69,5,5,0,1,0,0,10Z"/><path class="cls-1" d="M103.58,23.73A13.47,13.47,0,0,1,117,37.18a3.43,3.43,0,1,0,6.85,0,13.47,13.47,0,0,1,13.46-13.45,3.43,3.43,0,0,0,0-6.85A13.48,13.48,0,0,1,123.89,3.43a3.43,3.43,0,1,0-6.85,0,13.48,13.48,0,0,1-13.46,13.45,3.43,3.43,0,0,0,0,6.85Z"/><path class="cls-1" d="M103.34,157.63a24.83,24.83,0,0,1,15.58,5.49l3.48-1.52a3.45,3.45,0,0,0,1.64-4.85L91.09,97.64a3.45,3.45,0,0,0-5-1.16l-42,29.17A9.8,9.8,0,0,0,40.32,139l21.84,39.2A9.8,9.8,0,0,0,75.5,182l3-1.29A25,25,0,0,1,103.34,157.63Z"/><path class="cls-1" d="M160.44,288.08l-40.5-86.91a24.86,24.86,0,0,1-33.19,0L46.24,288.08a8.45,8.45,0,0,0,15.32,7.14l33.33-71.51v67.94a8.45,8.45,0,1,0,16.9,0V223.71l33.33,71.51a8.46,8.46,0,0,0,7.67,4.88,8.45,8.45,0,0,0,7.65-12Z"/><path class="cls-1" d="M103.34,167.21a16,16,0,1,0,16,16A16,16,0,0,0,103.34,167.21Z"/><path class="cls-1" d="M201.46,119.42l-37.9-68A14.05,14.05,0,0,0,144.45,46L107.37,72.76a14,14,0,0,0-5.43,19.11l32.71,58.69A14.06,14.06,0,0,0,153.76,156L196,138.53A14,14,0,0,0,201.46,119.42ZM160.31,87.24a5,5,0,0,1-6.8-1.95L143.39,67a5,5,0,1,1,8.75-4.84l10.12,18.28A5,5,0,0,1,160.31,87.24Z"/></g></g></svg>